<?xml version="1.0"?>
<svg xmlns="http://www.w3.org/2000/svg" id="Layer_1" x="0px" y="0px" viewBox="0 0 430 512" data-name="Layer 1">
    <g fill="currentColor">
        <path d="m409.955 335.74-2.622 1.961a6 6 0 1 0 7.186 9.61l2.622-1.961a6 6 0 1 0 -7.186-9.61z"/>
        <path d="m370.174 93.158a5.977 5.977 0 0 0 3.779-1.343l24.135-19.6a6 6 0 0 0 -7.565-9.315l-24.135 19.6a6 6 0 0 0 3.786 10.658z"/>
        <path d="m333.127 109.512-43.883 35.638a6 6 0 0 0 7.566 9.316l43.882-35.639a6 6 0 1 0 -7.565-9.315z"/>
        <path d="m223.229 212.494a5.974 5.974 0 0 0 3.779-1.342l31.752-25.786a6 6 0 1 0 -7.564-9.316l-31.752 25.786a6 6 0 0 0 3.785 10.658z"/>
        <path d="m480.6 171.422-21.863 18.4a6 6 0 0 0 7.73 9.178l21.863-18.4a6 6 0 1 0 -7.726-9.182z"/>
        <path d="m420.2 222.25-74.363 62.574a6 6 0 1 0 7.727 9.181l74.363-62.573a6 6 0 0 0 -7.727-9.182z"/>
        <path d="m320.965 313.593a6 6 0 0 0 -8.454-.728l-12.262 10.319a6 6 0 0 0 7.726 9.182l12.263-10.319a6 6 0 0 0 .727-8.454z"/>
        <path d="m487.3 82.437-89.748 70.4a6 6 0 1 0 7.407 9.441l89.747-70.4a6 6 0 1 0 -7.406-9.441z"/>
        <path d="m349.7 204a5.971 5.971 0 0 0 3.7-1.28l13.992-10.976a6 6 0 1 0 -7.406-9.442l-13.986 10.976a6 6 0 0 0 3.7 10.722z"/>
        <path d="m218.521 301.556a6 6 0 0 0 8.429.981l88.309-69.9a6 6 0 0 0 -7.447-9.41l-88.31 69.9a6 6 0 0 0 -.981 8.429z"/>
        <path d="m27.13 227.523a12.13 12.13 0 1 0 12.13 12.13 12.143 12.143 0 0 0 -12.13-12.13z"/>
        <path d="m82.317 201.914a7.226 7.226 0 1 0 -7.226-7.226 7.235 7.235 0 0 0 7.226 7.226z"/>
        <path d="m327.661 428.635a10.9 10.9 0 1 0 10.9 10.9 10.916 10.916 0 0 0 -10.9-10.9z"/>
        <path d="m311.537 80.487a9.408 9.408 0 1 0 -9.408-9.407 9.418 9.418 0 0 0 9.408 9.407z"/>
        <path d="m295.226 352.457-12.326-8.057-.35-14.716a6 6 0 0 0 -9.761-4.532l-11.468 9.229-14.1-4.215a6 6 0 0 0 -7.325 7.883l5.234 13.759-8.367 12.112a6 6 0 0 0 5.232 9.4l14.7-.726 8.933 11.7a6 6 0 0 0 10.56-2.071l3.853-14.207 13.889-4.881a6 6 0 0 0 1.294-10.683zm-22.137 5.288a6 6 0 0 0 -3.8 4.09l-1.5 5.519-3.47-4.545a6 6 0 0 0 -4.769-2.359c-.1 0-.2 0-.3.008l-5.711.282 3.25-4.7a6 6 0 0 0 .671-5.544l-2.033-5.344 5.479 1.637a6 6 0 0 0 5.48-1.075l4.454-3.584.136 5.716a6 6 0 0 0 2.715 4.879l4.787 3.129z"/>
        <path d="m162.6 246.3 14.7-.726 8.934 11.7a6 6 0 0 0 10.56-2.07l3.86-14.204 13.889-4.881a6 6 0 0 0 1.293-10.682l-12.321-8.056-.35-14.716a6 6 0 0 0 -9.76-4.532l-11.469 9.23-14.1-4.215a6 6 0 0 0 -7.326 7.882l5.234 13.759-8.371 12.111a6 6 0 0 0 5.232 9.4zm15.472-22.833-2.033-5.344 5.479 1.637a6 6 0 0 0 5.482-1.073l4.455-3.585.136 5.716a6 6 0 0 0 2.716 4.88l4.786 3.129-5.4 1.9a6 6 0 0 0 -3.8 4.09l-1.5 5.519-3.47-4.545a6 6 0 0 0 -4.769-2.359c-.1 0-.2 0-.3.007l-5.711.282 3.25-4.705a6 6 0 0 0 .684-5.547z"/>
        <path d="m223.878 348.292-43.272-20.808-7.389-47.442a6 6 0 0 0 -10.268-3.221l-33.161 34.724-47.4-7.632a6 6 0 0 0 -6.235 8.77l22.776 42.268-21.91 42.726a6 6 0 0 0 6.413 8.64l47.238-8.6 33.865 34.038a6 6 0 0 0 10.2-3.43l6.418-47.583 42.836-21.689a6 6 0 0 0 -.11-10.76zm-50.961 23.167a6 6 0 0 0 -3.236 4.552l-5.214 38.661-27.515-27.655a6 6 0 0 0 -4.253-1.768 5.928 5.928 0 0 0 -1.075.1l-38.381 6.987 17.8-34.713a6 6 0 0 0 -.057-5.584l-18.507-34.346 38.516 6.2a6 6 0 0 0 5.293-1.78l26.943-28.213 6 38.547a6 6 0 0 0 3.328 4.484l35.158 16.9z"/>
    </g>
</svg>